<svg id="Layer_1" data-name="Layer 1" xmlns="http://www.w3.org/2000/svg" viewBox="0 0 128 128"><defs><style>.cls-1{fill:#2d3e50;}.cls-2{fill:#1d75b8;}</style></defs><title>a</title><path class="cls-1" d="M92.5105,82.61192a6.084,6.084,0,0,0-3.2788-4.41553c-5.70123-2.84294-18.21195-7.04166-18.21195-7.04166V67.02391l.34826-.26282a11.9523,11.9523,0,0,0,4.5382-7.5958l.07009-.44024h.33949A4.61707,4.61707,0,0,0,80.589,55.85144a5.02793,5.02793,0,0,0,.6286-2.43556,4.62608,4.62608,0,0,0-.32854-1.71277,2.38889,2.38889,0,0,0-.92647-1.48938l-1.15427-.70087L79.09521,48.26c2.08512-9.08954-4.95654-17.27673-14.41185-17.50234-.23-.00438-.45776-.00655-.68336-.00219-.2256-.00436-.45338-.00219-.68336.00219-9.45531.2256-16.497,8.41279-14.41185,17.50234l.28692,1.25282-1.15427.70087a2.38889,2.38889,0,0,0-.92647,1.48938,4.62608,4.62608,0,0,0-.32854,1.71277,5.02793,5.02793,0,0,0,.6286,2.43556A4.61707,4.61707,0,0,0,51.68422,58.725h.33949l.07009.44024a11.9523,11.9523,0,0,0,4.5382,7.5958l.34826.26282v4.13081S44.46953,75.35345,38.7683,78.19639a6.084,6.084,0,0,0-3.2788,4.41553,132.47169,132.47169,0,0,0-1.14988,15.31863H93.66038A132.47169,132.47169,0,0,0,92.5105,82.61192Z" id="id_101" style="fill: rgb(255, 255, 255);"></path><path class="cls-2" d="M119.47637,37.21706A61.61893,61.61893,0,0,0,97.78318,12.9867a60.66153,60.66153,0,0,0-51.21841-6.8988A60.1906,60.1906,0,0,0,9.01306,40.70346l4.62886,1.95518A54.60643,54.60643,0,0,1,34.06591,18.78a53.62111,53.62111,0,0,1,59.33174.80429A53.23713,53.23713,0,0,1,111.8234,41.63552l-5.79661,3.34664L123.38131,52.306l1.99048-18.49268Z" id="id_102" style="fill: rgb(255, 255, 255);"></path><path class="cls-2" d="M8.52363,90.78294A61.61893,61.61893,0,0,0,30.21682,115.0133a60.66153,60.66153,0,0,0,51.21841,6.8988,60.1906,60.1906,0,0,0,37.55172-34.61556l-4.62886-1.95518A54.60643,54.60643,0,0,1,93.93409,109.22a53.62111,53.62111,0,0,1-59.33174-.80429A53.23713,53.23713,0,0,1,16.1766,86.36448l5.79661-3.34664L4.61869,75.694,2.6282,94.18666Z" id="id_103" style="fill: rgb(255, 255, 255);"></path></svg>